<svg id="visual" viewBox="0 0 960 540" width="960" height="540" xmlns="http://www.w3.org/2000/svg" xmlns:xlink="http://www.w3.org/1999/xlink" version="1.1"><rect x="0" y="0" width="960" height="540" fill="#2A303C"></rect><defs><linearGradient id="grad1_0" x1="43.8%" y1="0%" x2="100%" y2="100%"><stop offset="14.444444444444446%" stop-color="#20252e" stop-opacity="1"></stop><stop offset="85.55555555555554%" stop-color="#20252e" stop-opacity="1"></stop></linearGradient></defs><defs><linearGradient id="grad1_1" x1="43.8%" y1="0%" x2="100%" y2="100%"><stop offset="14.444444444444446%" stop-color="#20252e" stop-opacity="1"></stop><stop offset="85.55555555555554%" stop-color="#222831" stop-opacity="1"></stop></linearGradient></defs><defs><linearGradient id="grad1_2" x1="43.8%" y1="0%" x2="100%" y2="100%"><stop offset="14.444444444444446%" stop-color="#252a35" stop-opacity="1"></stop><stop offset="85.55555555555554%" stop-color="#222831" stop-opacity="1"></stop></linearGradient></defs><defs><linearGradient id="grad1_3" x1="43.8%" y1="0%" x2="100%" y2="100%"><stop offset="14.444444444444446%" stop-color="#252a35" stop-opacity="1"></stop><stop offset="85.55555555555554%" stop-color="#272d38" stop-opacity="1"></stop></linearGradient></defs><defs><linearGradient id="grad1_4" x1="43.8%" y1="0%" x2="100%" y2="100%"><stop offset="14.444444444444446%" stop-color="#2a303c" stop-opacity="1"></stop><stop offset="85.55555555555554%" stop-color="#272d38" stop-opacity="1"></stop></linearGradient></defs><defs><linearGradient id="grad2_0" x1="0%" y1="0%" x2="56.3%" y2="100%"><stop offset="14.444444444444446%" stop-color="#20252e" stop-opacity="1"></stop><stop offset="85.55555555555554%" stop-color="#20252e" stop-opacity="1"></stop></linearGradient></defs><defs><linearGradient id="grad2_1" x1="0%" y1="0%" x2="56.3%" y2="100%"><stop offset="14.444444444444446%" stop-color="#222831" stop-opacity="1"></stop><stop offset="85.55555555555554%" stop-color="#20252e" stop-opacity="1"></stop></linearGradient></defs><defs><linearGradient id="grad2_2" x1="0%" y1="0%" x2="56.3%" y2="100%"><stop offset="14.444444444444446%" stop-color="#222831" stop-opacity="1"></stop><stop offset="85.55555555555554%" stop-color="#252a35" stop-opacity="1"></stop></linearGradient></defs><defs><linearGradient id="grad2_3" x1="0%" y1="0%" x2="56.3%" y2="100%"><stop offset="14.444444444444446%" stop-color="#272d38" stop-opacity="1"></stop><stop offset="85.55555555555554%" stop-color="#252a35" stop-opacity="1"></stop></linearGradient></defs><defs><linearGradient id="grad2_4" x1="0%" y1="0%" x2="56.3%" y2="100%"><stop offset="14.444444444444446%" stop-color="#272d38" stop-opacity="1"></stop><stop offset="85.55555555555554%" stop-color="#2a303c" stop-opacity="1"></stop></linearGradient></defs><g transform="translate(960, 0)"><path d="M0 405C-24.2 406.1 -48.5 407.1 -70.3 398.8C-92.2 390.6 -111.7 372.9 -130.7 359C-149.6 345 -168 334.7 -188 325.6C-208 316.5 -229.7 308.6 -249.4 297.2C-269.1 285.8 -287 270.9 -302.6 253.9C-318.2 236.9 -331.6 217.7 -341.2 197C-350.8 176.3 -356.6 154.1 -364.6 132.7C-372.6 111.3 -382.9 90.7 -390 68.8C-397.1 46.8 -401 23.4 -405 0L0 0Z" fill="#292f3a"></path><path d="M0 324C-19.4 324.9 -38.8 325.7 -56.3 319.1C-73.8 312.4 -89.4 298.3 -104.5 287.2C-119.7 276 -134.4 267.8 -150.4 260.5C-166.4 253.2 -183.7 246.9 -199.5 237.8C-215.3 228.7 -229.6 216.7 -242.1 203.1C-254.6 189.5 -265.3 174.2 -273 157.6C-280.6 141 -285.3 123.3 -291.7 106.2C-298.1 89.1 -306.3 72.6 -312 55C-317.7 37.4 -320.8 18.7 -324 0L0 0Z" fill="#262c37"></path><path d="M0 243C-14.5 243.6 -29.1 244.3 -42.2 239.3C-55.3 234.3 -67 223.8 -78.4 215.4C-89.8 207 -100.8 200.8 -112.8 195.4C-124.8 189.9 -137.8 185.2 -149.6 178.3C-161.5 171.5 -172.2 162.6 -181.6 152.3C-190.9 142.1 -199 130.6 -204.7 118.2C-210.5 105.8 -214 92.5 -218.8 79.6C-223.6 66.8 -229.7 54.4 -234 41.3C-238.3 28.1 -240.6 14 -243 0L0 0Z" fill="#242933"></path><path d="M0 162C-9.7 162.4 -19.4 162.9 -28.1 159.5C-36.9 156.2 -44.7 149.2 -52.3 143.6C-59.8 138 -67.2 133.9 -75.2 130.3C-83.2 126.6 -91.9 123.4 -99.8 118.9C-107.7 114.3 -114.8 108.4 -121 101.6C-127.3 94.7 -132.6 87.1 -136.5 78.8C-140.3 70.5 -142.6 61.6 -145.8 53.1C-149 44.5 -153.2 36.3 -156 27.5C-158.8 18.7 -160.4 9.4 -162 0L0 0Z" fill="#212630"></path><path d="M0 81C-4.8 81.2 -9.7 81.4 -14.1 79.8C-18.4 78.1 -22.3 74.6 -26.1 71.8C-29.9 69 -33.6 66.9 -37.6 65.1C-41.6 63.3 -45.9 61.7 -49.9 59.4C-53.8 57.2 -57.4 54.2 -60.5 50.8C-63.6 47.4 -66.3 43.5 -68.2 39.4C-70.2 35.3 -71.3 30.8 -72.9 26.5C-74.5 22.3 -76.6 18.1 -78 13.8C-79.4 9.4 -80.2 4.7 -81 0L0 0Z" fill="#20252e"></path></g><g transform="translate(0, 540)"><path d="M0 -405C22.8 -394.2 45.5 -383.4 65.6 -372.3C85.8 -361.1 103.3 -349.6 126.9 -348.6C150.5 -347.7 180.3 -357.3 202.5 -350.7C224.7 -344.2 239.4 -321.5 251.3 -299.5C263.2 -277.6 272.3 -256.3 282.7 -237.2C293 -218.1 304.6 -201.1 320.4 -185C336.2 -168.9 356.3 -153.7 370.2 -134.8C384.2 -115.8 392.1 -93.1 396.9 -70C401.7 -46.9 403.3 -23.4 405 0L0 0Z" fill="#292f3a"></path><path d="M0 -324C18.2 -315.4 36.4 -306.7 52.5 -297.8C68.6 -288.9 82.6 -279.7 101.5 -278.9C120.4 -278.1 144.2 -285.8 162 -280.6C179.8 -275.4 191.5 -257.2 201.1 -239.6C210.6 -222 217.9 -205 226.1 -189.8C234.4 -174.5 243.7 -160.9 256.3 -148C269 -135.1 285 -123 296.2 -107.8C307.4 -92.6 313.7 -74.5 317.5 -56C321.3 -37.5 322.7 -18.8 324 0L0 0Z" fill="#262c37"></path><path d="M0 -243C13.7 -236.5 27.3 -230 39.4 -223.4C51.5 -216.7 62 -209.7 76.1 -209.2C90.3 -208.6 108.2 -214.4 121.5 -210.4C134.8 -206.5 143.7 -192.9 150.8 -179.7C157.9 -166.5 163.4 -153.8 169.6 -142.3C175.8 -130.8 182.8 -120.7 192.3 -111C201.7 -101.3 213.8 -92.2 222.1 -80.9C230.5 -69.5 235.3 -55.8 238.1 -42C241 -28.1 242 -14.1 243 0L0 0Z" fill="#242933"></path><path d="M0 -162C9.1 -157.7 18.2 -153.4 26.3 -148.9C34.3 -144.4 41.3 -139.8 50.8 -139.5C60.2 -139.1 72.1 -142.9 81 -140.3C89.9 -137.7 95.8 -128.6 100.5 -119.8C105.3 -111 108.9 -102.5 113.1 -94.9C117.2 -87.2 121.8 -80.4 128.2 -74C134.5 -67.6 142.5 -61.5 148.1 -53.9C153.7 -46.3 156.8 -37.2 158.8 -28C160.7 -18.8 161.3 -9.4 162 0L0 0Z" fill="#212630"></path><path d="M0 -81C4.6 -78.8 9.1 -76.7 13.1 -74.5C17.2 -72.2 20.7 -69.9 25.4 -69.7C30.1 -69.5 36.1 -71.5 40.5 -70.1C44.9 -68.8 47.9 -64.3 50.3 -59.9C52.6 -55.5 54.5 -51.3 56.5 -47.4C58.6 -43.6 60.9 -40.2 64.1 -37C67.2 -33.8 71.3 -30.7 74 -27C76.8 -23.2 78.4 -18.6 79.4 -14C80.3 -9.4 80.7 -4.7 81 0L0 0Z" fill="#20252e"></path></g></svg>