<svg id="visual" viewBox="0 0 960 540" width="960" height="540" xmlns="http://www.w3.org/2000/svg" xmlns:xlink="http://www.w3.org/1999/xlink" version="1.1"><path d="M0 405L22.8 398.3C45.7 391.7 91.3 378.3 137 374.3C182.7 370.3 228.3 375.7 274 375.8C319.7 376 365.3 371 411.2 369C457 367 503 368 548.8 369.8C594.7 371.7 640.3 374.3 686 378C731.7 381.7 777.3 386.3 823 384C868.7 381.7 914.3 372.3 937.2 367.7L960 363L960 541L937.2 541C914.3 541 868.7 541 823 541C777.3 541 731.7 541 686 541C640.3 541 594.7 541 548.8 541C503 541 457 541 411.2 541C365.3 541 319.7 541 274 541C228.3 541 182.7 541 137 541C91.3 541 45.7 541 22.8 541L0 541Z" fill="#000000"></path><path d="M0 429L22.8 423.2C45.7 417.3 91.3 405.7 137 407C182.7 408.3 228.3 422.7 274 422.2C319.7 421.7 365.3 406.3 411.2 400.8C457 395.3 503 399.7 548.8 405.8C594.7 412 640.3 420 686 423.3C731.7 426.7 777.3 425.3 823 423.7C868.7 422 914.3 420 937.2 419L960 418L960 541L937.2 541C914.3 541 868.7 541 823 541C777.3 541 731.7 541 686 541C640.3 541 594.7 541 548.8 541C503 541 457 541 411.2 541C365.3 541 319.7 541 274 541C228.3 541 182.7 541 137 541C91.3 541 45.7 541 22.8 541L0 541Z" fill="#0e0e0e"></path><path d="M0 437L22.8 439.5C45.7 442 91.3 447 137 452.8C182.7 458.7 228.3 465.3 274 462.7C319.7 460 365.3 448 411.2 439.8C457 431.7 503 427.3 548.8 431.2C594.7 435 640.3 447 686 447.7C731.7 448.3 777.3 437.7 823 439.5C868.7 441.3 914.3 455.7 937.2 462.8L960 470L960 541L937.2 541C914.3 541 868.7 541 823 541C777.3 541 731.7 541 686 541C640.3 541 594.7 541 548.8 541C503 541 457 541 411.2 541C365.3 541 319.7 541 274 541C228.3 541 182.7 541 137 541C91.3 541 45.7 541 22.8 541L0 541Z" fill="#282828"></path><path d="M0 489L22.8 486C45.7 483 91.3 477 137 472.3C182.7 467.7 228.3 464.3 274 467.5C319.7 470.7 365.3 480.3 411.2 484.5C457 488.7 503 487.3 548.8 482C594.7 476.7 640.3 467.3 686 463C731.7 458.7 777.3 459.3 823 462.7C868.7 466 914.3 472 937.2 475L960 478L960 541L937.2 541C914.3 541 868.7 541 823 541C777.3 541 731.7 541 686 541C640.3 541 594.7 541 548.8 541C503 541 457 541 411.2 541C365.3 541 319.7 541 274 541C228.3 541 182.7 541 137 541C91.3 541 45.7 541 22.8 541L0 541Z" fill="#0e0e0e"></path><path d="M0 491L22.8 494.2C45.7 497.3 91.3 503.7 137 504.7C182.7 505.7 228.3 501.3 274 497.7C319.7 494 365.3 491 411.2 492.7C457 494.3 503 500.7 548.8 502.3C594.7 504 640.3 501 686 500.8C731.7 500.7 777.3 503.3 823 506.8C868.7 510.3 914.3 514.7 937.2 516.8L960 519L960 541L937.2 541C914.3 541 868.7 541 823 541C777.3 541 731.7 541 686 541C640.3 541 594.7 541 548.8 541C503 541 457 541 411.2 541C365.3 541 319.7 541 274 541C228.3 541 182.7 541 137 541C91.3 541 45.7 541 22.8 541L0 541Z" fill="#000000"></path></svg>